<?xml version="1.0" standalone="no"?>
<!DOCTYPE svg PUBLIC "-//W3C//DTD SVG 20010904//EN"
 "http://www.w3.org/TR/2001/REC-SVG-20010904/DTD/svg10.dtd">
<svg version="1.0" xmlns="http://www.w3.org/2000/svg"
 width="1280.000000pt" height="1280.000000pt" viewBox="0 0 1280.000000 1280.000000"
 preserveAspectRatio="xMidYMid meet">
<metadata>
Created by potrace 1.11, written by Peter Selinger 2001-2013
</metadata>
<g transform="translate(0.000000,1280.000000) scale(0.100000,-0.100000)"
fill="#000000" stroke="none">
<path d="M4769 12796 c-2 -2 -29 -7 -59 -10 -192 -23 -413 -109 -597 -233 -83
-55 -250 -212 -308 -288 -194 -255 -298 -572 -290 -880 4 -137 6 -156 31 -275
34 -158 114 -340 210 -478 29 -41 40 -64 31 -67 -6 -2 -57 -16 -112 -30 -55
-14 -123 -33 -151 -41 -28 -8 -60 -16 -70 -19 -11 -2 -46 -11 -79 -20 -33 -9
-67 -18 -75 -20 -11 -3 -610 -163 -785 -210 -16 -5 -33 -8 -37 -7 -14 3 -8
-34 27 -163 19 -70 34 -129 33 -130 -3 -2 -371 -102 -408 -111 -8 -2 -67 -17
-130 -34 -131 -36 -325 -88 -485 -131 -60 -16 -139 -37 -175 -46 -36 -9 -66
-17 -67 -17 -2 -2 27 -115 67 -261 27 -101 60 -225 65 -245 5 -24 130 -486
159 -590 8 -30 60 -224 115 -430 55 -206 114 -427 131 -490 17 -63 48 -180 69
-260 21 -80 73 -273 115 -430 43 -157 88 -325 101 -375 80 -298 266 -990 311
-1155 14 -52 29 -111 34 -130 10 -44 145 -548 164 -615 12 -38 128 -473 152
-565 2 -8 15 -55 28 -105 76 -284 178 -662 181 -675 2 -8 11 -40 20 -70 8 -30
18 -66 21 -80 2 -14 16 -65 30 -115 13 -49 49 -182 79 -295 30 -113 59 -221
65 -240 19 -68 72 -266 100 -375 16 -60 41 -153 55 -205 14 -52 27 -102 29
-110 5 -20 61 -229 93 -345 14 -49 26 -98 28 -108 2 -9 17 -65 33 -125 17 -59
33 -118 36 -132 4 -14 14 -50 22 -80 9 -30 17 -62 19 -70 1 -8 9 -35 16 -60 7
-25 13 -49 15 -55 3 -12 143 -534 183 -683 16 -56 30 -105 33 -107 3 -3 27 2
54 9 47 14 659 179 854 230 93 24 182 48 470 126 226 61 296 79 430 115 69 18
217 58 330 88 228 62 1036 278 1145 307 134 35 1243 333 1530 411 77 20 185
49 240 64 55 14 132 35 170 45 39 11 113 30 165 44 164 44 318 85 530 142 113
31 212 57 220 59 8 2 58 15 110 29 104 29 140 38 340 92 74 20 176 47 225 60
50 14 97 26 105 28 8 2 42 11 75 20 33 9 68 19 77 21 10 2 71 18 135 36 65 17
183 49 263 71 80 21 150 40 155 42 6 1 23 6 38 11 19 5 26 12 22 24 -2 9 -37
135 -75 281 -39 146 -103 382 -141 525 -39 143 -72 269 -75 280 -2 11 -17 70
-34 130 -16 61 -34 126 -39 145 -5 19 -19 67 -30 105 -11 39 -38 140 -60 225
-23 85 -84 315 -136 510 -52 195 -129 483 -171 640 -42 157 -80 299 -85 315
-17 56 -69 255 -73 278 -3 12 -5 22 -6 22 -1 0 -3 7 -5 15 -24 88 -39 145 -70
260 -20 74 -38 142 -41 150 -7 29 -73 276 -109 410 -20 74 -77 286 -126 470
-50 184 -105 391 -123 460 -38 141 -69 255 -120 445 -162 606 -342 1276 -362
1350 -13 50 -33 124 -44 165 -11 41 -44 165 -74 275 -29 110 -84 313 -120 450
-118 440 -231 862 -336 1250 -39 143 -73 269 -75 280 -11 53 -29 111 -35 118
-7 8 -52 -3 -370 -88 -254 -68 -280 -75 -355 -95 -42 -11 -80 -22 -84 -24 -4
-3 -22 -8 -39 -11 -18 -3 -72 -16 -120 -30 -48 -14 -135 -37 -194 -53 l-106
-29 -32 116 c-43 160 -45 166 -61 165 -8 -1 -59 -14 -114 -28 -178 -48 -1109
-298 -1156 -310 l-46 -12 2 147 c4 207 -22 354 -96 546 -99 254 -294 492 -531
646 -69 45 -230 127 -250 127 -8 0 -18 4 -24 9 -13 12 -136 48 -230 67 -68 14
-375 29 -385 20z"/>
</g>
</svg>
